<?xml version="1.0" encoding="iso-8859-1"?>
<!-- Generator: Adobe Illustrator 19.0.0, SVG Export Plug-In . SVG Version: 6.00 Build 0)  -->
<svg version="1.1" id="Capa_1" xmlns="http://www.w3.org/2000/svg" xmlns:xlink="http://www.w3.org/1999/xlink" x="0px" y="0px"
	 viewBox="0 0 511.999 511.999" style="enable-background:new 0 0 511.999 511.999;" xml:space="preserve">
<g>
	<g>
		<path d="M414.295,208.78h-131.09c-4.143,0-7.5,3.358-7.5,7.5s3.357,7.5,7.5,7.5h131.09c4.143,0,7.5-3.358,7.5-7.5
			S418.437,208.78,414.295,208.78z"/>
	</g>
</g>
<g>
	<g>
		<path d="M414.295,248.191h-131.09c-4.143,0-7.5,3.358-7.5,7.5c0,4.142,3.357,7.5,7.5,7.5h131.09c4.143,0,7.5-3.358,7.5-7.5
			C421.795,251.549,418.437,248.191,414.295,248.191z"/>
	</g>
</g>
<g>
	<g>
		<path d="M414.295,287.602h-131.09c-4.143,0-7.5,3.358-7.5,7.5c0,4.142,3.357,7.5,7.5,7.5h131.09c4.143,0,7.5-3.358,7.5-7.5
			C421.795,290.961,418.437,287.602,414.295,287.602z"/>
	</g>
</g>
<g>
	<g>
		<path d="M414.295,327.014h-131.09c-4.143,0-7.5,3.358-7.5,7.5c0,4.142,3.357,7.5,7.5,7.5h131.09c4.143,0,7.5-3.358,7.5-7.5
			C421.795,330.372,418.437,327.014,414.295,327.014z"/>
	</g>
</g>
<g>
	<g>
		<path d="M414.295,366.425H63.569c-4.143,0-7.5,3.358-7.5,7.5s3.357,7.5,7.5,7.5h350.725c4.143,0,7.5-3.358,7.5-7.5
			S418.437,366.425,414.295,366.425z"/>
	</g>
</g>
<g>
	<g>
		<path d="M414.295,405.837H63.569c-4.143,0-7.5,3.358-7.5,7.5s3.357,7.5,7.5,7.5h350.725c4.143,0,7.5-3.358,7.5-7.5
			S418.437,405.837,414.295,405.837z"/>
	</g>
</g>
<g>
	<g>
		<path d="M414.295,445.248H63.569c-4.143,0-7.5,3.358-7.5,7.5c0,4.142,3.357,7.5,7.5,7.5h350.725c4.143,0,7.5-3.358,7.5-7.5
			C421.795,448.606,418.437,445.248,414.295,445.248z"/>
	</g>
</g>
<g>
	<g>
		<path d="M232.643,206.919h-63.9c-4.143,0-7.5,3.358-7.5,7.5c0,4.142,3.357,7.5,7.5,7.5h46.252l-63.753,44.342l-63.753-44.342
			h46.252c4.143,0,7.5-3.358,7.5-7.5c0-4.142-3.357-7.5-7.5-7.5H69.844c-7.595,0-13.774,6.179-13.774,13.774v109.411
			c-0.001,7.596,6.178,13.774,13.774,13.774h162.799c7.595,0,13.774-6.179,13.774-13.774V220.692
			C246.416,213.098,240.237,206.919,232.643,206.919z M71.07,228.772l67.036,46.626L71.07,322.022V228.772z M87.488,328.876
			l63.755-44.343l63.755,44.343H87.488z M231.415,322.024l-67.038-46.627l67.038-46.627V322.024z"/>
	</g>
</g>
<g>
	<g>
		<path d="M493.788,0H52.377c-9.009,0-16.339,7.329-16.339,16.34c0,14.937,0,64.585,0,79.742H18.211
			c-9.008,0-16.34,7.327-16.34,16.339c0,6.909,0,376.988,0,383.238c0,9.01,7.329,16.34,16.34,16.34h441.412
			c9.01,0,16.339-7.33,16.339-16.34v-79.742h17.827c9.011,0,16.34-7.33,16.34-16.34V246.491c0-4.142-3.357-7.5-7.5-7.5
			s-7.5,3.358-7.5,7.5v153.087c0,0.738-0.601,1.339-1.339,1.339h-17.827c0-10.842,0-274.79,0-288.496
			c0-9.011-7.33-16.339-16.339-16.339c-10.256,0-355.686,0-408.584,0V74.669c5.397,0,431.27,0,444.089,0v136.82
			c0,4.142,3.357,7.5,7.5,7.5s7.5-3.358,7.5-7.5V67.169V16.34C510.128,7.331,502.8,0,493.788,0z M460.96,495.66
			c0,0.738-0.601,1.339-1.338,1.339H18.211c-0.738,0-1.339-0.601-1.339-1.339V170.75c5.397,0,431.27,0,444.089,0V495.66z
			 M78.715,111.084h380.907c0.737-0.001,1.338,0.6,1.338,1.338v43.329H78.715V111.084z M63.714,111.083v44.667H16.871v-43.329
			c0-0.738,0.601-1.338,1.339-1.338C23.144,111.083,58.845,111.083,63.714,111.083z M97.881,59.669H51.039V16.34
			c0-0.738,0.601-1.338,1.339-1.338h45.504V59.669z M495.127,59.668H112.882V15.001h380.906c0.738,0,1.339,0.601,1.339,1.338V59.668
			z"/>
	</g>
</g>
<g>
</g>
<g>
</g>
<g>
</g>
<g>
</g>
<g>
</g>
<g>
</g>
<g>
</g>
<g>
</g>
<g>
</g>
<g>
</g>
<g>
</g>
<g>
</g>
<g>
</g>
<g>
</g>
<g>
</g>
</svg>
